ISO-10303-21;
HEADER;
FILE_DESCRIPTION(('ViewDefinition [CoordinationView]'),'2;1');
FILE_NAME('','2026-10-01T13:40:45',(''),(''),'IfcOpenShell 0.9.0alpha0-8c614fa','IfcOpenShell 0.9.0alpha0-8c614fa','');
FILE_SCHEMA(('IFC4'));
ENDSEC;
DATA;
#1=IFCPERSON($,'Editor','IFC',$,$,$,$,$);
#2=IFCORGANIZATION($,'IFC Editor OpenBIM',$,$,$);
#3=IFCPERSONANDORGANIZATION(#1,#2,$);
#4=IFCAPPLICATION(#2,'1.0.0','IFC Editor','IFCEditor');
#5=IFCOWNERHISTORY(#3,#4,$,.ADDED.,$,$,$,1700000000);
#6=IFCSIUNIT(*,.LENGTHUNIT.,$,.METRE.);
#7=IFCSIUNIT(*,.AREAUNIT.,$,.SQUARE_METRE.);
#8=IFCSIUNIT(*,.VOLUMEUNIT.,$,.CUBIC_METRE.);
#9=IFCUNITASSIGNMENT((#6,#7,#8));
#10=IFCCARTESIANPOINT((0.,0.,0.));
#11=IFCDIRECTION((0.,0.,1.));
#12=IFCDIRECTION((1.,0.,0.));
#13=IFCAXIS2PLACEMENT3D(#10,#11,#12);
#14=IFCGEOMETRICREPRESENTATIONCONTEXT($,'Model',3,1.E-05,#13,$);
#15=IFCPROJECT('1KCs50c0j37xTM7KVDH_Ny',#5,'Duplex Residential Villa','Created with IFC Editor',$,$,$,(#14),#9);
#16=IFCLOCALPLACEMENT($,#13);
#17=IFCSITE('2BpAdsth1CsPcplzjSJCj_',#5,'Site 01',$,$,#16,$,$,.ELEMENT.,$,$,$,$,$);
#18=IFCLOCALPLACEMENT(#16,#13);
#19=IFCBUILDING('0f7obK7zT40AdGrnM4Nv9_',#5,'Building A',$,$,#18,$,$,.ELEMENT.,$,$,$);
#20=IFCLOCALPLACEMENT(#18,#13);
#21=IFCBUILDINGSTOREY('16sX4KinH8XOQgmztmupaa',#5,'Level 01 - Ground Floor',$,$,#20,$,$,.ELEMENT.,0.);
#22=IFCRELAGGREGATES('1AuCzY4Tb6jfTcapcZ9Cwh',$,$,$,#15,(#17));
#23=IFCRELAGGREGATES('1ZR85HsJb9FRd78m4p5Jzj',$,$,$,#17,(#19));
#24=IFCRELAGGREGATES('0rmkJq70b9rg5AJPVCHw3t',#28,$,$,#19,(#21,#27));
#25=IFCGEOMETRICREPRESENTATIONSUBCONTEXT('Body','Model',*,*,*,*,#14,$,.MODEL_VIEW.,$);
#26=IFCOWNERHISTORY(#3,#4,.READWRITE.,.ADDED.,1790854845,#3,#4,1790854845);
#27=IFCBUILDINGSTOREY('0ofa8SRDzCkuazjOdtQDy9',#26,'Level 02 - First Floor',$,$,$,$,$,$,3.2);
#28=IFCOWNERHISTORY(#3,#4,.READWRITE.,.ADDED.,1790854845,#3,#4,1790854845);
#29=IFCOWNERHISTORY(#3,#4,.READWRITE.,.MODIFIED.,1790854845,#3,#4,1790854845);
#30=IFCSLAB('0QvcUV2RT34uClG38D6t7$',#29,'L1 Floor Slab',$,$,#52,#40,$,$);
#31=IFCCARTESIANPOINTLIST3D(((0.,0.,0.),(12.,0.,0.),(12.,9.,0.),(0.,9.,0.),(0.,0.,0.3),(12.,0.,0.3),(12.,9.,0.3),(0.,9.,0.3)));
#32=IFCINDEXEDPOLYGONALFACE((1,4,3,2));
#33=IFCINDEXEDPOLYGONALFACE((5,6,7,8));
#34=IFCINDEXEDPOLYGONALFACE((1,2,6,5));
#35=IFCINDEXEDPOLYGONALFACE((3,4,8,7));
#36=IFCINDEXEDPOLYGONALFACE((1,5,8,4));
#37=IFCINDEXEDPOLYGONALFACE((2,3,7,6));
#38=IFCPOLYGONALFACESET(#31,$,(#32,#33,#34,#35,#36,#37),$);
#39=IFCSHAPEREPRESENTATION(#25,'Body','Tessellation',(#38));
#40=IFCPRODUCTDEFINITIONSHAPE($,$,(#39));
#46=IFCOWNERHISTORY(#3,#4,.READWRITE.,.MODIFIED.,1790854845,#3,#4,1790854845);
#47=IFCRELCONTAINEDINSPATIALSTRUCTURE('3x3oOVN_nBvOCek83khkWu',#46,$,$,(#235,#54,#123,#77,#30,#146,#213,#169,#100,#191),#21);
#48=IFCCARTESIANPOINT((0.,0.,-0.3));
#49=IFCDIRECTION((0.,0.,1.));
#50=IFCDIRECTION((1.,0.,0.));
#51=IFCAXIS2PLACEMENT3D(#48,#49,#50);
#52=IFCLOCALPLACEMENT(#20,#51);
#53=IFCOWNERHISTORY(#3,#4,.READWRITE.,.MODIFIED.,1790854845,#3,#4,1790854845);
#54=IFCWALL('3Ml085fwj5vQJ2u6mTfz7E',#53,'L1 South Facade Wall',$,$,#75,#65,$,$);
#55=IFCCARTESIANPOINTLIST2D(((0.,0.),(0.,0.25),(12.,0.25),(12.,0.),(0.,0.)));
#56=IFCINDEXEDPOLYCURVE(#55,$,.F.);
#57=IFCDIRECTION((0.,0.,1.));
#58=IFCARBITRARYCLOSEDPROFILEDEF(.AREA.,$,#56);
#59=IFCCARTESIANPOINT((0.,0.,0.));
#60=IFCDIRECTION((0.,0.,1.));
#61=IFCDIRECTION((1.,0.,0.));
#62=IFCAXIS2PLACEMENT3D(#59,#60,#61);
#63=IFCEXTRUDEDAREASOLID(#58,#62,#57,3.);
#64=IFCSHAPEREPRESENTATION(#25,'Body','SweptSolid',(#63));
#65=IFCPRODUCTDEFINITIONSHAPE($,$,(#64));
#71=IFCCARTESIANPOINT((0.,0.,0.));
#72=IFCDIRECTION((0.,0.,1.));
#73=IFCDIRECTION((1.,0.,0.));
#74=IFCAXIS2PLACEMENT3D(#71,#72,#73);
#75=IFCLOCALPLACEMENT(#20,#74);
#76=IFCOWNERHISTORY(#3,#4,.READWRITE.,.MODIFIED.,1790854845,#3,#4,1790854845);
#77=IFCWALL('2junA7rUT9WOZjdhOSNNRo',#76,'L1 North Facade Wall',$,$,#98,#88,$,$);
#78=IFCCARTESIANPOINTLIST2D(((0.,0.),(0.,0.25),(12.,0.25),(12.,0.),(0.,0.)));
#79=IFCINDEXEDPOLYCURVE(#78,$,.F.);
#80=IFCDIRECTION((0.,0.,1.));
#81=IFCARBITRARYCLOSEDPROFILEDEF(.AREA.,$,#79);
#82=IFCCARTESIANPOINT((0.,0.,0.));
#83=IFCDIRECTION((0.,0.,1.));
#84=IFCDIRECTION((1.,0.,0.));
#85=IFCAXIS2PLACEMENT3D(#82,#83,#84);
#86=IFCEXTRUDEDAREASOLID(#81,#85,#80,3.);
#87=IFCSHAPEREPRESENTATION(#25,'Body','SweptSolid',(#86));
#88=IFCPRODUCTDEFINITIONSHAPE($,$,(#87));
#94=IFCCARTESIANPOINT((0.,8.75,0.));
#95=IFCDIRECTION((0.,0.,1.));
#96=IFCDIRECTION((1.,0.,0.));
#97=IFCAXIS2PLACEMENT3D(#94,#95,#96);
#98=IFCLOCALPLACEMENT(#20,#97);
#99=IFCOWNERHISTORY(#3,#4,.READWRITE.,.MODIFIED.,1790854845,#3,#4,1790854845);
#100=IFCWALL('20xGg7cPL2TBNHwHwLrX5j',#99,'L1 West Facade Wall',$,$,#121,#111,$,$);
#101=IFCCARTESIANPOINTLIST2D(((0.,0.),(0.,0.25),(9.,0.25),(9.,0.),(0.,0.)));
#102=IFCINDEXEDPOLYCURVE(#101,$,.F.);
#103=IFCDIRECTION((0.,0.,1.));
#104=IFCARBITRARYCLOSEDPROFILEDEF(.AREA.,$,#102);
#105=IFCCARTESIANPOINT((0.,0.,0.));
#106=IFCDIRECTION((0.,0.,1.));
#107=IFCDIRECTION((1.,0.,0.));
#108=IFCAXIS2PLACEMENT3D(#105,#106,#107);
#109=IFCEXTRUDEDAREASOLID(#104,#108,#103,3.);
#110=IFCSHAPEREPRESENTATION(#25,'Body','SweptSolid',(#109));
#111=IFCPRODUCTDEFINITIONSHAPE($,$,(#110));
#117=IFCCARTESIANPOINT((0.25,0.,0.));
#118=IFCDIRECTION((0.,0.,1.));
#119=IFCDIRECTION((0.,1.,0.));
#120=IFCAXIS2PLACEMENT3D(#117,#118,#119);
#121=IFCLOCALPLACEMENT(#20,#120);
#122=IFCOWNERHISTORY(#3,#4,.READWRITE.,.MODIFIED.,1790854845,#3,#4,1790854845);
#123=IFCWALL('0iDJHSQE9ARvUwA1chGEFW',#122,'L1 East Facade Wall',$,$,#144,#134,$,$);
#124=IFCCARTESIANPOINTLIST2D(((0.,0.),(0.,0.25),(9.,0.25),(9.,0.),(0.,0.)));
#125=IFCINDEXEDPOLYCURVE(#124,$,.F.);
#126=IFCDIRECTION((0.,0.,1.));
#127=IFCARBITRARYCLOSEDPROFILEDEF(.AREA.,$,#125);
#128=IFCCARTESIANPOINT((0.,0.,0.));
#129=IFCDIRECTION((0.,0.,1.));
#130=IFCDIRECTION((1.,0.,0.));
#131=IFCAXIS2PLACEMENT3D(#128,#129,#130);
#132=IFCEXTRUDEDAREASOLID(#127,#131,#126,3.);
#133=IFCSHAPEREPRESENTATION(#25,'Body','SweptSolid',(#132));
#134=IFCPRODUCTDEFINITIONSHAPE($,$,(#133));
#140=IFCCARTESIANPOINT((12.,0.,0.));
#141=IFCDIRECTION((0.,0.,1.));
#142=IFCDIRECTION((0.,1.,0.));
#143=IFCAXIS2PLACEMENT3D(#140,#141,#142);
#144=IFCLOCALPLACEMENT(#20,#143);
#145=IFCOWNERHISTORY(#3,#4,.READWRITE.,.MODIFIED.,1790854845,#3,#4,1790854845);
#146=IFCWALL('0wtOI4YwP56xXPgwqElL29',#145,'L1 Interior Partition Wall',$,$,#167,#157,$,$);
#147=IFCCARTESIANPOINTLIST2D(((0.,0.),(0.,0.15),(8.5,0.15),(8.5,0.),(0.,0.)));
#148=IFCINDEXEDPOLYCURVE(#147,$,.F.);
#149=IFCDIRECTION((0.,0.,1.));
#150=IFCARBITRARYCLOSEDPROFILEDEF(.AREA.,$,#148);
#151=IFCCARTESIANPOINT((0.,0.,0.));
#152=IFCDIRECTION((0.,0.,1.));
#153=IFCDIRECTION((1.,0.,0.));
#154=IFCAXIS2PLACEMENT3D(#151,#152,#153);
#155=IFCEXTRUDEDAREASOLID(#150,#154,#149,3.);
#156=IFCSHAPEREPRESENTATION(#25,'Body','SweptSolid',(#155));
#157=IFCPRODUCTDEFINITIONSHAPE($,$,(#156));
#163=IFCCARTESIANPOINT((6.,0.25,0.));
#164=IFCDIRECTION((0.,0.,1.));
#165=IFCDIRECTION((0.,1.,0.));
#166=IFCAXIS2PLACEMENT3D(#163,#164,#165);
#167=IFCLOCALPLACEMENT(#20,#166);
#168=IFCOWNERHISTORY(#3,#4,.READWRITE.,.MODIFIED.,1790854845,#3,#4,1790854845);
#169=IFCCOLUMN('1Psq3v5_jF2BwoXkpen7O0',#168,'L1 Structural Column C1',$,$,#189,#179,$,$);
#170=IFCCARTESIANPOINTLIST3D(((0.,0.,0.),(0.4,0.,0.),(0.4,0.4,0.),(0.,0.4,0.),(0.,0.,3.),(0.4,0.,3.),(0.4,0.4,3.),(0.,0.4,3.)));
#171=IFCINDEXEDPOLYGONALFACE((1,4,3,2));
#172=IFCINDEXEDPOLYGONALFACE((5,6,7,8));
#173=IFCINDEXEDPOLYGONALFACE((1,2,6,5));
#174=IFCINDEXEDPOLYGONALFACE((3,4,8,7));
#175=IFCINDEXEDPOLYGONALFACE((1,5,8,4));
#176=IFCINDEXEDPOLYGONALFACE((2,3,7,6));
#177=IFCPOLYGONALFACESET(#170,$,(#171,#172,#173,#174,#175,#176),$);
#178=IFCSHAPEREPRESENTATION(#25,'Body','Tessellation',(#177));
#179=IFCPRODUCTDEFINITIONSHAPE($,$,(#178));
#185=IFCCARTESIANPOINT((0.,0.,0.));
#186=IFCDIRECTION((0.,0.,1.));
#187=IFCDIRECTION((1.,0.,0.));
#188=IFCAXIS2PLACEMENT3D(#185,#186,#187);
#189=IFCLOCALPLACEMENT(#20,#188);
#190=IFCOWNERHISTORY(#3,#4,.READWRITE.,.MODIFIED.,1790854845,#3,#4,1790854845);
#191=IFCCOLUMN('3kZd4dD69AbPd$2dmYvHV0',#190,'L1 Structural Column C2',$,$,#211,#201,$,$);
#192=IFCCARTESIANPOINTLIST3D(((0.,0.,0.),(0.4,0.,0.),(0.4,0.4,0.),(0.,0.4,0.),(0.,0.,3.),(0.4,0.,3.),(0.4,0.4,3.),(0.,0.4,3.)));
#193=IFCINDEXEDPOLYGONALFACE((1,4,3,2));
#194=IFCINDEXEDPOLYGONALFACE((5,6,7,8));
#195=IFCINDEXEDPOLYGONALFACE((1,2,6,5));
#196=IFCINDEXEDPOLYGONALFACE((3,4,8,7));
#197=IFCINDEXEDPOLYGONALFACE((1,5,8,4));
#198=IFCINDEXEDPOLYGONALFACE((2,3,7,6));
#199=IFCPOLYGONALFACESET(#192,$,(#193,#194,#195,#196,#197,#198),$);
#200=IFCSHAPEREPRESENTATION(#25,'Body','Tessellation',(#199));
#201=IFCPRODUCTDEFINITIONSHAPE($,$,(#200));
#207=IFCCARTESIANPOINT((11.6,0.,0.));
#208=IFCDIRECTION((0.,0.,1.));
#209=IFCDIRECTION((1.,0.,0.));
#210=IFCAXIS2PLACEMENT3D(#207,#208,#209);
#211=IFCLOCALPLACEMENT(#20,#210);
#212=IFCOWNERHISTORY(#3,#4,.READWRITE.,.MODIFIED.,1790854845,#3,#4,1790854845);
#213=IFCCOLUMN('2FGBNTgQH9N9IPgqwrhHGZ',#212,'L1 Structural Column C3',$,$,#233,#223,$,$);
#214=IFCCARTESIANPOINTLIST3D(((0.,0.,0.),(0.4,0.,0.),(0.4,0.4,0.),(0.,0.4,0.),(0.,0.,3.),(0.4,0.,3.),(0.4,0.4,3.),(0.,0.4,3.)));
#215=IFCINDEXEDPOLYGONALFACE((1,4,3,2));
#216=IFCINDEXEDPOLYGONALFACE((5,6,7,8));
#217=IFCINDEXEDPOLYGONALFACE((1,2,6,5));
#218=IFCINDEXEDPOLYGONALFACE((3,4,8,7));
#219=IFCINDEXEDPOLYGONALFACE((1,5,8,4));
#220=IFCINDEXEDPOLYGONALFACE((2,3,7,6));
#221=IFCPOLYGONALFACESET(#214,$,(#215,#216,#217,#218,#219,#220),$);
#222=IFCSHAPEREPRESENTATION(#25,'Body','Tessellation',(#221));
#223=IFCPRODUCTDEFINITIONSHAPE($,$,(#222));
#229=IFCCARTESIANPOINT((0.,8.6,0.));
#230=IFCDIRECTION((0.,0.,1.));
#231=IFCDIRECTION((1.,0.,0.));
#232=IFCAXIS2PLACEMENT3D(#229,#230,#231);
#233=IFCLOCALPLACEMENT(#20,#232);
#234=IFCOWNERHISTORY(#3,#4,.READWRITE.,.MODIFIED.,1790854845,#3,#4,1790854845);
#235=IFCCOLUMN('2l_Spjsl545xB2qaKUOIhb',#234,'L1 Structural Column C4',$,$,#255,#245,$,$);
#236=IFCCARTESIANPOINTLIST3D(((0.,0.,0.),(0.4,0.,0.),(0.4,0.4,0.),(0.,0.4,0.),(0.,0.,3.),(0.4,0.,3.),(0.4,0.4,3.),(0.,0.4,3.)));
#237=IFCINDEXEDPOLYGONALFACE((1,4,3,2));
#238=IFCINDEXEDPOLYGONALFACE((5,6,7,8));
#239=IFCINDEXEDPOLYGONALFACE((1,2,6,5));
#240=IFCINDEXEDPOLYGONALFACE((3,4,8,7));
#241=IFCINDEXEDPOLYGONALFACE((1,5,8,4));
#242=IFCINDEXEDPOLYGONALFACE((2,3,7,6));
#243=IFCPOLYGONALFACESET(#236,$,(#237,#238,#239,#240,#241,#242),$);
#244=IFCSHAPEREPRESENTATION(#25,'Body','Tessellation',(#243));
#245=IFCPRODUCTDEFINITIONSHAPE($,$,(#244));
#251=IFCCARTESIANPOINT((11.6,8.6,0.));
#252=IFCDIRECTION((0.,0.,1.));
#253=IFCDIRECTION((1.,0.,0.));
#254=IFCAXIS2PLACEMENT3D(#251,#252,#253);
#255=IFCLOCALPLACEMENT(#20,#254);
#256=IFCOWNERHISTORY(#3,#4,.READWRITE.,.MODIFIED.,1790854845,#3,#4,1790854845);
#257=IFCSLAB('2Avuq5oIH4aAtdaVil5_pk',#256,'L2 Floor Slab',$,$,#279,#267,$,$);
#258=IFCCARTESIANPOINTLIST3D(((0.,0.,0.),(12.,0.,0.),(12.,9.,0.),(0.,9.,0.),(0.,0.,0.3),(12.,0.,0.3),(12.,9.,0.3),(0.,9.,0.3)));
#259=IFCINDEXEDPOLYGONALFACE((1,4,3,2));
#260=IFCINDEXEDPOLYGONALFACE((5,6,7,8));
#261=IFCINDEXEDPOLYGONALFACE((1,2,6,5));
#262=IFCINDEXEDPOLYGONALFACE((3,4,8,7));
#263=IFCINDEXEDPOLYGONALFACE((1,5,8,4));
#264=IFCINDEXEDPOLYGONALFACE((2,3,7,6));
#265=IFCPOLYGONALFACESET(#258,$,(#259,#260,#261,#262,#263,#264),$);
#266=IFCSHAPEREPRESENTATION(#25,'Body','Tessellation',(#265));
#267=IFCPRODUCTDEFINITIONSHAPE($,$,(#266));
#273=IFCOWNERHISTORY(#3,#4,.READWRITE.,.MODIFIED.,1790854845,#3,#4,1790854845);
#274=IFCRELCONTAINEDINSPATIALSTRUCTURE('3TM_O9QiX2WetGwhvqHoEL',#273,$,$,(#350,#484,#440,#281,#327,#418,#462,#396,#257,#304,#373),#27);
#275=IFCCARTESIANPOINT((0.,0.,2.9000000000000004));
#276=IFCDIRECTION((0.,0.,1.));
#277=IFCDIRECTION((1.,0.,0.));
#278=IFCAXIS2PLACEMENT3D(#275,#276,#277);
#279=IFCLOCALPLACEMENT($,#278);
#280=IFCOWNERHISTORY(#3,#4,.READWRITE.,.MODIFIED.,1790854845,#3,#4,1790854845);
#281=IFCWALL('0RMho7VHD8$8f5CUTXwUCV',#280,'L2 South Facade Wall',$,$,#302,#292,$,$);
#282=IFCCARTESIANPOINTLIST2D(((0.,0.),(0.,0.25),(12.,0.25),(12.,0.),(0.,0.)));
#283=IFCINDEXEDPOLYCURVE(#282,$,.F.);
#284=IFCDIRECTION((0.,0.,1.));
#285=IFCARBITRARYCLOSEDPROFILEDEF(.AREA.,$,#283);
#286=IFCCARTESIANPOINT((0.,0.,0.));
#287=IFCDIRECTION((0.,0.,1.));
#288=IFCDIRECTION((1.,0.,0.));
#289=IFCAXIS2PLACEMENT3D(#286,#287,#288);
#290=IFCEXTRUDEDAREASOLID(#285,#289,#284,3.);
#291=IFCSHAPEREPRESENTATION(#25,'Body','SweptSolid',(#290));
#292=IFCPRODUCTDEFINITIONSHAPE($,$,(#291));
#298=IFCCARTESIANPOINT((0.,0.,3.2));
#299=IFCDIRECTION((0.,0.,1.));
#300=IFCDIRECTION((1.,0.,0.));
#301=IFCAXIS2PLACEMENT3D(#298,#299,#300);
#302=IFCLOCALPLACEMENT($,#301);
#303=IFCOWNERHISTORY(#3,#4,.READWRITE.,.MODIFIED.,1790854845,#3,#4,1790854845);
#304=IFCWALL('13KPXD4qX1lOwTx0dSiT$W',#303,'L2 North Facade Wall',$,$,#325,#315,$,$);
#305=IFCCARTESIANPOINTLIST2D(((0.,0.),(0.,0.25),(12.,0.25),(12.,0.),(0.,0.)));
#306=IFCINDEXEDPOLYCURVE(#305,$,.F.);
#307=IFCDIRECTION((0.,0.,1.));
#308=IFCARBITRARYCLOSEDPROFILEDEF(.AREA.,$,#306);
#309=IFCCARTESIANPOINT((0.,0.,0.));
#310=IFCDIRECTION((0.,0.,1.));
#311=IFCDIRECTION((1.,0.,0.));
#312=IFCAXIS2PLACEMENT3D(#309,#310,#311);
#313=IFCEXTRUDEDAREASOLID(#308,#312,#307,3.);
#314=IFCSHAPEREPRESENTATION(#25,'Body','SweptSolid',(#313));
#315=IFCPRODUCTDEFINITIONSHAPE($,$,(#314));
#321=IFCCARTESIANPOINT((0.,8.75,3.2));
#322=IFCDIRECTION((0.,0.,1.));
#323=IFCDIRECTION((1.,0.,0.));
#324=IFCAXIS2PLACEMENT3D(#321,#322,#323);
#325=IFCLOCALPLACEMENT($,#324);
#326=IFCOWNERHISTORY(#3,#4,.READWRITE.,.MODIFIED.,1790854845,#3,#4,1790854845);
#327=IFCWALL('0I09tHSrP90uYeuMFfVAoP',#326,'L2 West Facade Wall',$,$,#348,#338,$,$);
#328=IFCCARTESIANPOINTLIST2D(((0.,0.),(0.,0.25),(9.,0.25),(9.,0.),(0.,0.)));
#329=IFCINDEXEDPOLYCURVE(#328,$,.F.);
#330=IFCDIRECTION((0.,0.,1.));
#331=IFCARBITRARYCLOSEDPROFILEDEF(.AREA.,$,#329);
#332=IFCCARTESIANPOINT((0.,0.,0.));
#333=IFCDIRECTION((0.,0.,1.));
#334=IFCDIRECTION((1.,0.,0.));
#335=IFCAXIS2PLACEMENT3D(#332,#333,#334);
#336=IFCEXTRUDEDAREASOLID(#331,#335,#330,3.);
#337=IFCSHAPEREPRESENTATION(#25,'Body','SweptSolid',(#336));
#338=IFCPRODUCTDEFINITIONSHAPE($,$,(#337));
#344=IFCCARTESIANPOINT((0.25,0.,3.2));
#345=IFCDIRECTION((0.,0.,1.));
#346=IFCDIRECTION((0.,1.,0.));
#347=IFCAXIS2PLACEMENT3D(#344,#345,#346);
#348=IFCLOCALPLACEMENT($,#347);
#349=IFCOWNERHISTORY(#3,#4,.READWRITE.,.MODIFIED.,1790854845,#3,#4,1790854845);
#350=IFCWALL('3dFVenprbCdhTgbowxc99L',#349,'L2 East Facade Wall',$,$,#371,#361,$,$);
#351=IFCCARTESIANPOINTLIST2D(((0.,0.),(0.,0.25),(9.,0.25),(9.,0.),(0.,0.)));
#352=IFCINDEXEDPOLYCURVE(#351,$,.F.);
#353=IFCDIRECTION((0.,0.,1.));
#354=IFCARBITRARYCLOSEDPROFILEDEF(.AREA.,$,#352);
#355=IFCCARTESIANPOINT((0.,0.,0.));
#356=IFCDIRECTION((0.,0.,1.));
#357=IFCDIRECTION((1.,0.,0.));
#358=IFCAXIS2PLACEMENT3D(#355,#356,#357);
#359=IFCEXTRUDEDAREASOLID(#354,#358,#353,3.);
#360=IFCSHAPEREPRESENTATION(#25,'Body','SweptSolid',(#359));
#361=IFCPRODUCTDEFINITIONSHAPE($,$,(#360));
#367=IFCCARTESIANPOINT((12.,0.,3.2));
#368=IFCDIRECTION((0.,0.,1.));
#369=IFCDIRECTION((0.,1.,0.));
#370=IFCAXIS2PLACEMENT3D(#367,#368,#369);
#371=IFCLOCALPLACEMENT($,#370);
#372=IFCOWNERHISTORY(#3,#4,.READWRITE.,.MODIFIED.,1790854845,#3,#4,1790854845);
#373=IFCWALL('30mbcSku5DpQ1G$nlRtr2Y',#372,'L2 Interior Partition Wall',$,$,#394,#384,$,$);
#374=IFCCARTESIANPOINTLIST2D(((0.,0.),(0.,0.15),(8.5,0.15),(8.5,0.),(0.,0.)));
#375=IFCINDEXEDPOLYCURVE(#374,$,.F.);
#376=IFCDIRECTION((0.,0.,1.));
#377=IFCARBITRARYCLOSEDPROFILEDEF(.AREA.,$,#375);
#378=IFCCARTESIANPOINT((0.,0.,0.));
#379=IFCDIRECTION((0.,0.,1.));
#380=IFCDIRECTION((1.,0.,0.));
#381=IFCAXIS2PLACEMENT3D(#378,#379,#380);
#382=IFCEXTRUDEDAREASOLID(#377,#381,#376,3.);
#383=IFCSHAPEREPRESENTATION(#25,'Body','SweptSolid',(#382));
#384=IFCPRODUCTDEFINITIONSHAPE($,$,(#383));
#390=IFCCARTESIANPOINT((6.,0.25,3.2));
#391=IFCDIRECTION((0.,0.,1.));
#392=IFCDIRECTION((0.,1.,0.));
#393=IFCAXIS2PLACEMENT3D(#390,#391,#392);
#394=IFCLOCALPLACEMENT($,#393);
#395=IFCOWNERHISTORY(#3,#4,.READWRITE.,.MODIFIED.,1790854845,#3,#4,1790854845);
#396=IFCCOLUMN('2t9deGWzb6oen_LbKXXcGy',#395,'L2 Structural Column C1',$,$,#416,#406,$,$);
#397=IFCCARTESIANPOINTLIST3D(((0.,0.,0.),(0.4,0.,0.),(0.4,0.4,0.),(0.,0.4,0.),(0.,0.,3.),(0.4,0.,3.),(0.4,0.4,3.),(0.,0.4,3.)));
#398=IFCINDEXEDPOLYGONALFACE((1,4,3,2));
#399=IFCINDEXEDPOLYGONALFACE((5,6,7,8));
#400=IFCINDEXEDPOLYGONALFACE((1,2,6,5));
#401=IFCINDEXEDPOLYGONALFACE((3,4,8,7));
#402=IFCINDEXEDPOLYGONALFACE((1,5,8,4));
#403=IFCINDEXEDPOLYGONALFACE((2,3,7,6));
#404=IFCPOLYGONALFACESET(#397,$,(#398,#399,#400,#401,#402,#403),$);
#405=IFCSHAPEREPRESENTATION(#25,'Body','Tessellation',(#404));
#406=IFCPRODUCTDEFINITIONSHAPE($,$,(#405));
#412=IFCCARTESIANPOINT((0.,0.,3.2));
#413=IFCDIRECTION((0.,0.,1.));
#414=IFCDIRECTION((1.,0.,0.));
#415=IFCAXIS2PLACEMENT3D(#412,#413,#414);
#416=IFCLOCALPLACEMENT($,#415);
#417=IFCOWNERHISTORY(#3,#4,.READWRITE.,.MODIFIED.,1790854845,#3,#4,1790854845);
#418=IFCCOLUMN('06gxnZmy93PeKs9ps68Vwa',#417,'L2 Structural Column C2',$,$,#438,#428,$,$);
#419=IFCCARTESIANPOINTLIST3D(((0.,0.,0.),(0.4,0.,0.),(0.4,0.4,0.),(0.,0.4,0.),(0.,0.,3.),(0.4,0.,3.),(0.4,0.4,3.),(0.,0.4,3.)));
#420=IFCINDEXEDPOLYGONALFACE((1,4,3,2));
#421=IFCINDEXEDPOLYGONALFACE((5,6,7,8));
#422=IFCINDEXEDPOLYGONALFACE((1,2,6,5));
#423=IFCINDEXEDPOLYGONALFACE((3,4,8,7));
#424=IFCINDEXEDPOLYGONALFACE((1,5,8,4));
#425=IFCINDEXEDPOLYGONALFACE((2,3,7,6));
#426=IFCPOLYGONALFACESET(#419,$,(#420,#421,#422,#423,#424,#425),$);
#427=IFCSHAPEREPRESENTATION(#25,'Body','Tessellation',(#426));
#428=IFCPRODUCTDEFINITIONSHAPE($,$,(#427));
#434=IFCCARTESIANPOINT((11.6,0.,3.2));
#435=IFCDIRECTION((0.,0.,1.));
#436=IFCDIRECTION((1.,0.,0.));
#437=IFCAXIS2PLACEMENT3D(#434,#435,#436);
#438=IFCLOCALPLACEMENT($,#437);
#439=IFCOWNERHISTORY(#3,#4,.READWRITE.,.MODIFIED.,1790854845,#3,#4,1790854845);
#440=IFCCOLUMN('2QxonLUOf5DBnibDcaIadv',#439,'L2 Structural Column C3',$,$,#460,#450,$,$);
#441=IFCCARTESIANPOINTLIST3D(((0.,0.,0.),(0.4,0.,0.),(0.4,0.4,0.),(0.,0.4,0.),(0.,0.,3.),(0.4,0.,3.),(0.4,0.4,3.),(0.,0.4,3.)));
#442=IFCINDEXEDPOLYGONALFACE((1,4,3,2));
#443=IFCINDEXEDPOLYGONALFACE((5,6,7,8));
#444=IFCINDEXEDPOLYGONALFACE((1,2,6,5));
#445=IFCINDEXEDPOLYGONALFACE((3,4,8,7));
#446=IFCINDEXEDPOLYGONALFACE((1,5,8,4));
#447=IFCINDEXEDPOLYGONALFACE((2,3,7,6));
#448=IFCPOLYGONALFACESET(#441,$,(#442,#443,#444,#445,#446,#447),$);
#449=IFCSHAPEREPRESENTATION(#25,'Body','Tessellation',(#448));
#450=IFCPRODUCTDEFINITIONSHAPE($,$,(#449));
#456=IFCCARTESIANPOINT((0.,8.6,3.2));
#457=IFCDIRECTION((0.,0.,1.));
#458=IFCDIRECTION((1.,0.,0.));
#459=IFCAXIS2PLACEMENT3D(#456,#457,#458);
#460=IFCLOCALPLACEMENT($,#459);
#461=IFCOWNERHISTORY(#3,#4,.READWRITE.,.MODIFIED.,1790854845,#3,#4,1790854845);
#462=IFCCOLUMN('2B6xA3ChLCEwNi$Qh_8QJ9',#461,'L2 Structural Column C4',$,$,#482,#472,$,$);
#463=IFCCARTESIANPOINTLIST3D(((0.,0.,0.),(0.4,0.,0.),(0.4,0.4,0.),(0.,0.4,0.),(0.,0.,3.),(0.4,0.,3.),(0.4,0.4,3.),(0.,0.4,3.)));
#464=IFCINDEXEDPOLYGONALFACE((1,4,3,2));
#465=IFCINDEXEDPOLYGONALFACE((5,6,7,8));
#466=IFCINDEXEDPOLYGONALFACE((1,2,6,5));
#467=IFCINDEXEDPOLYGONALFACE((3,4,8,7));
#468=IFCINDEXEDPOLYGONALFACE((1,5,8,4));
#469=IFCINDEXEDPOLYGONALFACE((2,3,7,6));
#470=IFCPOLYGONALFACESET(#463,$,(#464,#465,#466,#467,#468,#469),$);
#471=IFCSHAPEREPRESENTATION(#25,'Body','Tessellation',(#470));
#472=IFCPRODUCTDEFINITIONSHAPE($,$,(#471));
#478=IFCCARTESIANPOINT((11.6,8.6,3.2));
#479=IFCDIRECTION((0.,0.,1.));
#480=IFCDIRECTION((1.,0.,0.));
#481=IFCAXIS2PLACEMENT3D(#478,#479,#480);
#482=IFCLOCALPLACEMENT($,#481);
#483=IFCOWNERHISTORY(#3,#4,.READWRITE.,.MODIFIED.,1790854845,#3,#4,1790854845);
#484=IFCSLAB('0tWfx6eQj9y9v6auBmGZlF',#483,'Roof Slab',$,$,#504,#494,$,$);
#485=IFCCARTESIANPOINTLIST3D(((0.,0.,0.),(12.6,0.,0.),(12.6,9.6,0.),(0.,9.6,0.),(0.,0.,0.3),(12.6,0.,0.3),(12.6,9.6,0.3),(0.,9.6,0.3)));
#486=IFCINDEXEDPOLYGONALFACE((1,4,3,2));
#487=IFCINDEXEDPOLYGONALFACE((5,6,7,8));
#488=IFCINDEXEDPOLYGONALFACE((1,2,6,5));
#489=IFCINDEXEDPOLYGONALFACE((3,4,8,7));
#490=IFCINDEXEDPOLYGONALFACE((1,5,8,4));
#491=IFCINDEXEDPOLYGONALFACE((2,3,7,6));
#492=IFCPOLYGONALFACESET(#485,$,(#486,#487,#488,#489,#490,#491),$);
#493=IFCSHAPEREPRESENTATION(#25,'Body','Tessellation',(#492));
#494=IFCPRODUCTDEFINITIONSHAPE($,$,(#493));
#500=IFCCARTESIANPOINT((-0.3,-0.3,6.4));
#501=IFCDIRECTION((0.,0.,1.));
#502=IFCDIRECTION((1.,0.,0.));
#503=IFCAXIS2PLACEMENT3D(#500,#501,#502);
#504=IFCLOCALPLACEMENT($,#503);
ENDSEC;
END-ISO-10303-21;
