ISO-10303-21;
HEADER;
FILE_DESCRIPTION(('ViewDefinition [CoordinationView]'),'2;1');
FILE_NAME('','2026-10-01T13:40:45',(''),(''),'IfcOpenShell 0.9.0alpha0-8c614fa','IfcOpenShell 0.9.0alpha0-8c614fa','');
FILE_SCHEMA(('IFC4'));
ENDSEC;
DATA;
#1=IFCPERSON($,'Editor','IFC',$,$,$,$,$);
#2=IFCORGANIZATION($,'IFC Editor OpenBIM',$,$,$);
#3=IFCPERSONANDORGANIZATION(#1,#2,$);
#4=IFCAPPLICATION(#2,'1.0.0','IFC Editor','IFCEditor');
#5=IFCOWNERHISTORY(#3,#4,$,.ADDED.,$,$,$,1700000000);
#6=IFCSIUNIT(*,.LENGTHUNIT.,$,.METRE.);
#7=IFCSIUNIT(*,.AREAUNIT.,$,.SQUARE_METRE.);
#8=IFCSIUNIT(*,.VOLUMEUNIT.,$,.CUBIC_METRE.);
#9=IFCUNITASSIGNMENT((#6,#7,#8));
#10=IFCCARTESIANPOINT((0.,0.,0.));
#11=IFCDIRECTION((0.,0.,1.));
#12=IFCDIRECTION((1.,0.,0.));
#13=IFCAXIS2PLACEMENT3D(#10,#11,#12);
#14=IFCGEOMETRICREPRESENTATIONCONTEXT($,'Model',3,1.E-05,#13,$);
#15=IFCPROJECT('2EiBh3pGT1MRueoK10qm4Y',#5,'Modern Architectural Pavilion','Created with IFC Editor',$,$,$,(#14),#9);
#16=IFCLOCALPLACEMENT($,#13);
#17=IFCSITE('0rE2hptJ50AfWIEVAlZ0qy',#5,'Site 01',$,$,#16,$,$,.ELEMENT.,$,$,$,$,$);
#18=IFCLOCALPLACEMENT(#16,#13);
#19=IFCBUILDING('2bTpN_PCP0zf6tt2fRnWLs',#5,'Building A',$,$,#18,$,$,.ELEMENT.,$,$,$);
#20=IFCLOCALPLACEMENT(#18,#13);
#21=IFCBUILDINGSTOREY('3dKsTdIH5ATv$Ksbx9oPZv',#5,'Level 01 - Main Gallery',$,$,#20,$,$,.ELEMENT.,0.);
#22=IFCRELAGGREGATES('1bQiq1IcX5uAmRax5hhR_9',$,$,$,#15,(#17));
#23=IFCRELAGGREGATES('1mJcm69TP89xJccLoJn1A7',$,$,$,#17,(#19));
#24=IFCRELAGGREGATES('13OgzxA9HCUfcbapHyGPuj',$,$,$,#19,(#21));
#25=IFCGEOMETRICREPRESENTATIONSUBCONTEXT('Body','Model',*,*,*,*,#14,$,.MODEL_VIEW.,$);
#26=IFCOWNERHISTORY(#3,#4,.READWRITE.,.MODIFIED.,1790854845,#3,#4,1790854845);
#27=IFCSLAB('1oUCXvzzTC8Oc0WzFHKUbC',#26,'Gallery Ground Floor',$,$,#49,#37,$,$);
#28=IFCCARTESIANPOINTLIST3D(((0.,0.,0.),(18.,0.,0.),(18.,12.,0.),(0.,12.,0.),(0.,0.,0.4),(18.,0.,0.4),(18.,12.,0.4),(0.,12.,0.4)));
#29=IFCINDEXEDPOLYGONALFACE((1,4,3,2));
#30=IFCINDEXEDPOLYGONALFACE((5,6,7,8));
#31=IFCINDEXEDPOLYGONALFACE((1,2,6,5));
#32=IFCINDEXEDPOLYGONALFACE((3,4,8,7));
#33=IFCINDEXEDPOLYGONALFACE((1,5,8,4));
#34=IFCINDEXEDPOLYGONALFACE((2,3,7,6));
#35=IFCPOLYGONALFACESET(#28,$,(#29,#30,#31,#32,#33,#34),$);
#36=IFCSHAPEREPRESENTATION(#25,'Body','Tessellation',(#35));
#37=IFCPRODUCTDEFINITIONSHAPE($,$,(#36));
#43=IFCOWNERHISTORY(#3,#4,.READWRITE.,.MODIFIED.,1790854845,#3,#4,1790854845);
#44=IFCRELCONTAINEDINSPATIALSTRUCTURE('2GDLsp68f7qfGzWbwg6Jq$',#43,$,$,(#139,#51,#161,#183,#27,#73,#117,#95,#228,#205),#21);
#45=IFCCARTESIANPOINT((0.,0.,-0.4));
#46=IFCDIRECTION((0.,0.,1.));
#47=IFCDIRECTION((1.,0.,0.));
#48=IFCAXIS2PLACEMENT3D(#45,#46,#47);
#49=IFCLOCALPLACEMENT(#20,#48);
#50=IFCOWNERHISTORY(#3,#4,.READWRITE.,.MODIFIED.,1790854845,#3,#4,1790854845);
#51=IFCSLAB('279vsodYP9EO50t4Xj2efX',#50,'Cantilevered Canopy Roof',$,$,#71,#61,$,$);
#52=IFCCARTESIANPOINTLIST3D(((0.,0.,0.),(20.,0.,0.),(20.,14.,0.),(0.,14.,0.),(0.,0.,0.4),(20.,0.,0.4),(20.,14.,0.4),(0.,14.,0.4)));
#53=IFCINDEXEDPOLYGONALFACE((1,4,3,2));
#54=IFCINDEXEDPOLYGONALFACE((5,6,7,8));
#55=IFCINDEXEDPOLYGONALFACE((1,2,6,5));
#56=IFCINDEXEDPOLYGONALFACE((3,4,8,7));
#57=IFCINDEXEDPOLYGONALFACE((1,5,8,4));
#58=IFCINDEXEDPOLYGONALFACE((2,3,7,6));
#59=IFCPOLYGONALFACESET(#52,$,(#53,#54,#55,#56,#57,#58),$);
#60=IFCSHAPEREPRESENTATION(#25,'Body','Tessellation',(#59));
#61=IFCPRODUCTDEFINITIONSHAPE($,$,(#60));
#67=IFCCARTESIANPOINT((-1.,-1.,4.));
#68=IFCDIRECTION((0.,0.,1.));
#69=IFCDIRECTION((1.,0.,0.));
#70=IFCAXIS2PLACEMENT3D(#67,#68,#69);
#71=IFCLOCALPLACEMENT(#20,#70);
#72=IFCOWNERHISTORY(#3,#4,.READWRITE.,.MODIFIED.,1790854845,#3,#4,1790854845);
#73=IFCCOLUMN('20ubIE8pb7zObzUR_vACpT',#72,'Pavilion Column C1_1',$,$,#93,#83,$,$);
#74=IFCCARTESIANPOINTLIST3D(((0.,0.,0.),(0.5,0.,0.),(0.5,0.5,0.),(0.,0.5,0.),(0.,0.,4.),(0.5,0.,4.),(0.5,0.5,4.),(0.,0.5,4.)));
#75=IFCINDEXEDPOLYGONALFACE((1,4,3,2));
#76=IFCINDEXEDPOLYGONALFACE((5,6,7,8));
#77=IFCINDEXEDPOLYGONALFACE((1,2,6,5));
#78=IFCINDEXEDPOLYGONALFACE((3,4,8,7));
#79=IFCINDEXEDPOLYGONALFACE((1,5,8,4));
#80=IFCINDEXEDPOLYGONALFACE((2,3,7,6));
#81=IFCPOLYGONALFACESET(#74,$,(#75,#76,#77,#78,#79,#80),$);
#82=IFCSHAPEREPRESENTATION(#25,'Body','Tessellation',(#81));
#83=IFCPRODUCTDEFINITIONSHAPE($,$,(#82));
#89=IFCCARTESIANPOINT((0.,0.,0.));
#90=IFCDIRECTION((0.,0.,1.));
#91=IFCDIRECTION((1.,0.,0.));
#92=IFCAXIS2PLACEMENT3D(#89,#90,#91);
#93=IFCLOCALPLACEMENT(#20,#92);
#94=IFCOWNERHISTORY(#3,#4,.READWRITE.,.MODIFIED.,1790854845,#3,#4,1790854845);
#95=IFCCOLUMN('1b4jVR3Wf6fgUiVF2k5wcY',#94,'Pavilion Column C1_2',$,$,#115,#105,$,$);
#96=IFCCARTESIANPOINTLIST3D(((0.,0.,0.),(0.5,0.,0.),(0.5,0.5,0.),(0.,0.5,0.),(0.,0.,4.),(0.5,0.,4.),(0.5,0.5,4.),(0.,0.5,4.)));
#97=IFCINDEXEDPOLYGONALFACE((1,4,3,2));
#98=IFCINDEXEDPOLYGONALFACE((5,6,7,8));
#99=IFCINDEXEDPOLYGONALFACE((1,2,6,5));
#100=IFCINDEXEDPOLYGONALFACE((3,4,8,7));
#101=IFCINDEXEDPOLYGONALFACE((1,5,8,4));
#102=IFCINDEXEDPOLYGONALFACE((2,3,7,6));
#103=IFCPOLYGONALFACESET(#96,$,(#97,#98,#99,#100,#101,#102),$);
#104=IFCSHAPEREPRESENTATION(#25,'Body','Tessellation',(#103));
#105=IFCPRODUCTDEFINITIONSHAPE($,$,(#104));
#111=IFCCARTESIANPOINT((0.,11.5,0.));
#112=IFCDIRECTION((0.,0.,1.));
#113=IFCDIRECTION((1.,0.,0.));
#114=IFCAXIS2PLACEMENT3D(#111,#112,#113);
#115=IFCLOCALPLACEMENT(#20,#114);
#116=IFCOWNERHISTORY(#3,#4,.READWRITE.,.MODIFIED.,1790854845,#3,#4,1790854845);
#117=IFCCOLUMN('0XQcOGhgj8MwrT1$MCnKNZ',#116,'Pavilion Column C2_1',$,$,#137,#127,$,$);
#118=IFCCARTESIANPOINTLIST3D(((0.,0.,0.),(0.5,0.,0.),(0.5,0.5,0.),(0.,0.5,0.),(0.,0.,4.),(0.5,0.,4.),(0.5,0.5,4.),(0.,0.5,4.)));
#119=IFCINDEXEDPOLYGONALFACE((1,4,3,2));
#120=IFCINDEXEDPOLYGONALFACE((5,6,7,8));
#121=IFCINDEXEDPOLYGONALFACE((1,2,6,5));
#122=IFCINDEXEDPOLYGONALFACE((3,4,8,7));
#123=IFCINDEXEDPOLYGONALFACE((1,5,8,4));
#124=IFCINDEXEDPOLYGONALFACE((2,3,7,6));
#125=IFCPOLYGONALFACESET(#118,$,(#119,#120,#121,#122,#123,#124),$);
#126=IFCSHAPEREPRESENTATION(#25,'Body','Tessellation',(#125));
#127=IFCPRODUCTDEFINITIONSHAPE($,$,(#126));
#133=IFCCARTESIANPOINT((8.75,0.,0.));
#134=IFCDIRECTION((0.,0.,1.));
#135=IFCDIRECTION((1.,0.,0.));
#136=IFCAXIS2PLACEMENT3D(#133,#134,#135);
#137=IFCLOCALPLACEMENT(#20,#136);
#138=IFCOWNERHISTORY(#3,#4,.READWRITE.,.MODIFIED.,1790854845,#3,#4,1790854845);
#139=IFCCOLUMN('3DAP6oYvf3kBkQKK7NlhC9',#138,'Pavilion Column C2_2',$,$,#159,#149,$,$);
#140=IFCCARTESIANPOINTLIST3D(((0.,0.,0.),(0.5,0.,0.),(0.5,0.5,0.),(0.,0.5,0.),(0.,0.,4.),(0.5,0.,4.),(0.5,0.5,4.),(0.,0.5,4.)));
#141=IFCINDEXEDPOLYGONALFACE((1,4,3,2));
#142=IFCINDEXEDPOLYGONALFACE((5,6,7,8));
#143=IFCINDEXEDPOLYGONALFACE((1,2,6,5));
#144=IFCINDEXEDPOLYGONALFACE((3,4,8,7));
#145=IFCINDEXEDPOLYGONALFACE((1,5,8,4));
#146=IFCINDEXEDPOLYGONALFACE((2,3,7,6));
#147=IFCPOLYGONALFACESET(#140,$,(#141,#142,#143,#144,#145,#146),$);
#148=IFCSHAPEREPRESENTATION(#25,'Body','Tessellation',(#147));
#149=IFCPRODUCTDEFINITIONSHAPE($,$,(#148));
#155=IFCCARTESIANPOINT((8.75,11.5,0.));
#156=IFCDIRECTION((0.,0.,1.));
#157=IFCDIRECTION((1.,0.,0.));
#158=IFCAXIS2PLACEMENT3D(#155,#156,#157);
#159=IFCLOCALPLACEMENT(#20,#158);
#160=IFCOWNERHISTORY(#3,#4,.READWRITE.,.MODIFIED.,1790854845,#3,#4,1790854845);
#161=IFCCOLUMN('2BIq0tvZf4NOBzsxcoyl_N',#160,'Pavilion Column C3_1',$,$,#181,#171,$,$);
#162=IFCCARTESIANPOINTLIST3D(((0.,0.,0.),(0.5,0.,0.),(0.5,0.5,0.),(0.,0.5,0.),(0.,0.,4.),(0.5,0.,4.),(0.5,0.5,4.),(0.,0.5,4.)));
#163=IFCINDEXEDPOLYGONALFACE((1,4,3,2));
#164=IFCINDEXEDPOLYGONALFACE((5,6,7,8));
#165=IFCINDEXEDPOLYGONALFACE((1,2,6,5));
#166=IFCINDEXEDPOLYGONALFACE((3,4,8,7));
#167=IFCINDEXEDPOLYGONALFACE((1,5,8,4));
#168=IFCINDEXEDPOLYGONALFACE((2,3,7,6));
#169=IFCPOLYGONALFACESET(#162,$,(#163,#164,#165,#166,#167,#168),$);
#170=IFCSHAPEREPRESENTATION(#25,'Body','Tessellation',(#169));
#171=IFCPRODUCTDEFINITIONSHAPE($,$,(#170));
#177=IFCCARTESIANPOINT((17.5,0.,0.));
#178=IFCDIRECTION((0.,0.,1.));
#179=IFCDIRECTION((1.,0.,0.));
#180=IFCAXIS2PLACEMENT3D(#177,#178,#179);
#181=IFCLOCALPLACEMENT(#20,#180);
#182=IFCOWNERHISTORY(#3,#4,.READWRITE.,.MODIFIED.,1790854845,#3,#4,1790854845);
#183=IFCCOLUMN('3Jwipubav698RyQPJtSNvW',#182,'Pavilion Column C3_2',$,$,#203,#193,$,$);
#184=IFCCARTESIANPOINTLIST3D(((0.,0.,0.),(0.5,0.,0.),(0.5,0.5,0.),(0.,0.5,0.),(0.,0.,4.),(0.5,0.,4.),(0.5,0.5,4.),(0.,0.5,4.)));
#185=IFCINDEXEDPOLYGONALFACE((1,4,3,2));
#186=IFCINDEXEDPOLYGONALFACE((5,6,7,8));
#187=IFCINDEXEDPOLYGONALFACE((1,2,6,5));
#188=IFCINDEXEDPOLYGONALFACE((3,4,8,7));
#189=IFCINDEXEDPOLYGONALFACE((1,5,8,4));
#190=IFCINDEXEDPOLYGONALFACE((2,3,7,6));
#191=IFCPOLYGONALFACESET(#184,$,(#185,#186,#187,#188,#189,#190),$);
#192=IFCSHAPEREPRESENTATION(#25,'Body','Tessellation',(#191));
#193=IFCPRODUCTDEFINITIONSHAPE($,$,(#192));
#199=IFCCARTESIANPOINT((17.5,11.5,0.));
#200=IFCDIRECTION((0.,0.,1.));
#201=IFCDIRECTION((1.,0.,0.));
#202=IFCAXIS2PLACEMENT3D(#199,#200,#201);
#203=IFCLOCALPLACEMENT(#20,#202);
#204=IFCOWNERHISTORY(#3,#4,.READWRITE.,.MODIFIED.,1790854845,#3,#4,1790854845);
#205=IFCWALL('1YBRO_xmj4q97RvftxRHDF',#204,'North Glass Facade Wall',$,$,#226,#216,$,$);
#206=IFCCARTESIANPOINTLIST2D(((0.,0.),(0.,0.2),(18.,0.2),(18.,0.),(0.,0.)));
#207=IFCINDEXEDPOLYCURVE(#206,$,.F.);
#208=IFCDIRECTION((0.,0.,1.));
#209=IFCARBITRARYCLOSEDPROFILEDEF(.AREA.,$,#207);
#210=IFCCARTESIANPOINT((0.,0.,0.));
#211=IFCDIRECTION((0.,0.,1.));
#212=IFCDIRECTION((1.,0.,0.));
#213=IFCAXIS2PLACEMENT3D(#210,#211,#212);
#214=IFCEXTRUDEDAREASOLID(#209,#213,#208,4.);
#215=IFCSHAPEREPRESENTATION(#25,'Body','SweptSolid',(#214));
#216=IFCPRODUCTDEFINITIONSHAPE($,$,(#215));
#222=IFCCARTESIANPOINT((0.,11.8,0.));
#223=IFCDIRECTION((0.,0.,1.));
#224=IFCDIRECTION((1.,0.,0.));
#225=IFCAXIS2PLACEMENT3D(#222,#223,#224);
#226=IFCLOCALPLACEMENT(#20,#225);
#227=IFCOWNERHISTORY(#3,#4,.READWRITE.,.MODIFIED.,1790854845,#3,#4,1790854845);
#228=IFCWALL('2xSXJ6qzH6OfZNHASuWYKY',#227,'South Glass Facade Wall',$,$,#249,#239,$,$);
#229=IFCCARTESIANPOINTLIST2D(((0.,0.),(0.,0.2),(18.,0.2),(18.,0.),(0.,0.)));
#230=IFCINDEXEDPOLYCURVE(#229,$,.F.);
#231=IFCDIRECTION((0.,0.,1.));
#232=IFCARBITRARYCLOSEDPROFILEDEF(.AREA.,$,#230);
#233=IFCCARTESIANPOINT((0.,0.,0.));
#234=IFCDIRECTION((0.,0.,1.));
#235=IFCDIRECTION((1.,0.,0.));
#236=IFCAXIS2PLACEMENT3D(#233,#234,#235);
#237=IFCEXTRUDEDAREASOLID(#232,#236,#231,4.);
#238=IFCSHAPEREPRESENTATION(#25,'Body','SweptSolid',(#237));
#239=IFCPRODUCTDEFINITIONSHAPE($,$,(#238));
#245=IFCCARTESIANPOINT((0.,0.,0.));
#246=IFCDIRECTION((0.,0.,1.));
#247=IFCDIRECTION((1.,0.,0.));
#248=IFCAXIS2PLACEMENT3D(#245,#246,#247);
#249=IFCLOCALPLACEMENT(#20,#248);
ENDSEC;
END-ISO-10303-21;
